<?xml version="1.0" encoding="utf-8"?>
<svg viewBox="0 0 158 158" xmlns="http://www.w3.org/2000/svg">
  <g id="SvgjsG7365" featurekey="symbolGroupContainer" transform="matrix(2.813848972320556, 0, 0, 2.746392965316772, 8.538963317871065, 2.0592260360717773)" fill="#111111" style="">
    <path xmlns="http://www.w3.org/2000/svg" d="M23.11 55.78L1.69 43.41A3.39 3.39 0 0 1 0 40.48V15.75a3.39 3.39 0 0 1 1.69-2.94L23.11.45a3.39 3.39 0 0 1 3.39 0l21.41 12.37a3.39 3.39 0 0 1 1.69 2.94v24.72a3.39 3.39 0 0 1-1.69 2.94L26.5 55.78a3.39 3.39 0 0 1-3.39 0z"/>
  </g>
  <g id="SvgjsG7366" featurekey="S6ay6y-0" transform="matrix(-1.1204479932785032, 0, 0, -1.1204479932785032, 133.36569213867182, 134.9811096191406)" fill="#fcfcfc">
    <path xmlns="http://www.w3.org/2000/svg" d="M67.6,38.1L48.5,5v44.2l-15.1,8.7L14.3,24.8v47.5l18-10.4L51.5,95V50.8l15.1-8.7l19.1,33.1V27.7L67.6,38.1z M69.1,40.7  l13.6-7.9v31.5L69.1,40.7z M65.1,39.6l-13.6,7.9V16L65.1,39.6z M34.9,60.4l13.6-7.9V84L34.9,60.4z M30.9,59.3l-13.6,7.9V35.7  L30.9,59.3z"/>
  </g>
</svg>
